<svg xmlns="http://www.w3.org/2000/svg" width="16" height="16">
    <g color="#5c616c" fill="#5c616c">
        <path style="line-height:normal;-inkscape-font-specification:Sans;text-indent:0;text-align:start;text-decoration-line:none;text-transform:none;block-progression:tb;marker:none" d="m 521.0002,-367.01036 0,1 0,7 c 0,2.07164 1.57494,3.52182 2.9375,4.46875 1.36256,0.94693 2.6875,1.46875 2.6875,1.46875 l 0.375,0.125 0.375,-0.125 c 0,0 1.32934,-0.54445 2.6875,-1.5 1.35816,-0.95555 2.9375,-2.39317 2.9375,-4.4375 l 0,-7 0,-1 -1,0 -5.25,0 -4.75,0 -1,0 z m 1,1 4.75,0 5.25,0 0,7 c 0,2.96398 -5,5 -5,5 0,0 -5,-1.94932 -5,-5 l 0,-7 z" transform="translate(-519 368.01)"/>
        <path style="line-height:normal;-inkscape-font-specification:Sans;text-indent:0;text-align:start;text-decoration-line:none;text-transform:none;block-progression:tb;marker:none" d="m 523.0002,-365.01036 0,6 c 0,0.97901 0.92512,2.0221 2.0625,2.8125 0.94964,0.65993 1.64577,0.90854 1.9375,1.03125 0.29177,-0.12746 0.98307,-0.39096 1.9375,-1.0625 1.14191,-0.80345 2.0625,-1.86157 2.0625,-2.78125 l 0,-6 -4.25,0 -3.75,0 z" opacity=".35" transform="translate(-519 368.01)"/>
    </g>
</svg>
