<svg height="16" width="16" xmlns="http://www.w3.org/2000/svg">
    <path d="m 328.90645,257.09375 c -0.5255,-0.0286 -1.03823,0.28305 -1.4375,0.96875 l -6.25,11.59375 C 320.68548,270.61964 321.26717,272 322.3127,272 l 13.15625,0 c 0.98172,0 1.90311,-1.15939 1.21875,-2.34375 L 330.3752,258.125 c -0.39872,-0.64617 -0.94325,-1.00262 -1.46875,-1.03125 z m 0.0625,3.9375 c 0.54448,-0.0172 1.04849,0.48677 1.03125,1.03125 l 0,3.9375 c 0.007,0.52831 -0.47163,1 -1,1 -0.52836,0 -1.00747,-0.47169 -1,-1 l 0,-3.9375 c -0.008,-0.4666 0.3541,-0.91253 0.8125,-1 0.0511,-0.0145 0.10345,-0.0249 0.15625,-0.0312 z M 329.0002,268 c 0.55228,0 1,0.44772 1,1 0,0.55228 -0.44772,1 -1,1 -0.55228,0 -1,-0.44772 -1,-1 0,-0.55228 0.44772,-1 1,-1 z" color="#5c616c" fill="#5c616c" transform="translate(-321 -257)"/>
</svg>
