<svg xmlns="http://www.w3.org/2000/svg" xmlns:xlink="http://www.w3.org/1999/xlink" width="96" height="96">
    <defs>
        <linearGradient gradientTransform="translate(.527 -.023)" y2="27.08" x2="-91.537" y1="-6.819" x1="-85.335" gradientUnits="userSpaceOnUse" id="k" xlink:href="#a"/>
        <linearGradient id="b">
            <stop offset="0"/>
            <stop offset="1" stop-opacity="0"/>
        </linearGradient>
        <linearGradient id="e">
            <stop offset="0" stop-color="#f0f1ee"/>
            <stop offset="1" stop-color="#d5d9d1"/>
        </linearGradient>
        <linearGradient id="d">
            <stop offset="0" stop-color="#fff"/>
            <stop offset="1" stop-color="#fff" stop-opacity="0"/>
        </linearGradient>
        <linearGradient id="a">
            <stop offset="0" stop-color="#b8d67a"/>
            <stop offset="1" stop-color="#789e2d"/>
        </linearGradient>
        <linearGradient id="c">
            <stop offset="0"/>
            <stop offset="1" stop-opacity="0"/>
        </linearGradient>
        <linearGradient id="f">
            <stop offset="0" stop-color="#edeeec"/>
            <stop offset="1" stop-color="#babdb6"/>
        </linearGradient>
        <linearGradient xlink:href="#b" id="j" x1="24.001" y1="60.65" x2="24.001" y2=".971" gradientUnits="userSpaceOnUse" gradientTransform="matrix(2.00212 0 0 1.9507 -.099 -46.48)"/>
        <linearGradient xlink:href="#c" id="i" x1="24.001" y1="60.65" x2="24.001" y2=".971" gradientUnits="userSpaceOnUse" gradientTransform="matrix(2.00212 0 0 1.9507 -.099 -46.48)"/>
        <linearGradient gradientUnits="userSpaceOnUse" y2="-8.303" x2="-91.354" y1="35.302" x1="-81.96" id="l" xlink:href="#d"/>
        <radialGradient xlink:href="#e" id="g" gradientUnits="userSpaceOnUse" gradientTransform="matrix(3.25687 0 0 3.33189 -31.458 -57.38)" cx="22.75" cy="10.25" fx="22.75" fy="10.25" r="19.875"/>
        <radialGradient xlink:href="#f" id="h" gradientUnits="userSpaceOnUse" gradientTransform="matrix(8.2059 0 0 5.60726 -97.63 -129.806)" cx="17.62" cy="21.611" fx="17.62" fy="21.611" r="8"/>
    </defs>
    <path d="M 43.139166,-35.908285 C 28.228374,-25.030067 4.8597,-18.352031 4.8597,-18.352031 c 6.044126,50.230394 39.034981,62.422237 39.034981,62.422237 0,0 32.487177,-12.679517 39.034982,-63.153747 0,0 -28.205922,-9.997312 -39.790497,-16.824744 z" display="block" fill="url(#g)" stroke="#888a85" stroke-linecap="round" stroke-linejoin="round" transform="translate(4.057 44.255)"/>
    <path d="m 47.24569,-38.246358 c -13.973006,10.194054 -36.977077,17.035844 -36.977077,17.035844 5.663993,47.071253 37.69366,60.159904 37.69366,60.159904 0,0 31.53773,-13.583279 37.673719,-60.883034 0,0 -27.534315,-9.91468 -38.390302,-16.312714 z" display="block" fill="none" stroke="#fff" stroke-linecap="round" stroke-linejoin="round" transform="translate(0 48)"/>
    <path d="M 46.960754,-34.499009 47.181444,35.15 c 0,0 -26.693965,-14.211471 -34.1112,-54.670007 22.437107,-5.452086 33.89051,-14.979002 33.89051,-14.979002 z" display="block" fill="url(#h)" transform="translate(0 48)"/>
    <path d="M 45.109235,39.490238 C 30.333925,31.740958 18.344629,16.25069 12.355674,-3.1140476 10.208051,-10.05819 8.3591916,-19.851302 8.4724194,-22.285793 c 0.1965539,-0.224533 3.0933486,-1.101041 4.6153706,-1.589261 12.323463,-3.953017 24.426077,-9.668032 31.783382,-14.70706 1.203773,-0.824465 2.151404,-1.609372 2.341861,-1.609372 0.190461,0 1.485526,0.842825 2.844205,1.586357 6.008358,3.288047 17.048223,7.900424 31.857531,13.411084 2.748234,1.02264 5.474812,1.901589 5.520655,2.185905 0.09015,0.559072 -0.105119,1.820016 -1.208814,7.748215 -4.088092,21.958042 -15.047085,40.233214 -30.162045,51.336647 -2.159952,1.586701 -7.545206,4.727755 -8.105819,4.720486 -0.165855,-0.0021 -1.319387,-0.504456 -2.849511,-1.30697 z m 6.610693,-1.496214 c 9.731964,-5.709842 19.038984,-16.173234 24.88504,-27.619592 3.073757,-6.018289 6.115207,-14.2151143 7.757205,-21.321654 0.693155,-2.999957 2.250875,-11.424905 2.131434,-11.529544 -0.02971,-0.02602 -3.958778,-1.413436 -8.284781,-3.057602 -10.778864,-4.096678 -18.926986,-7.489806 -25.34742,-10.604268 -2.977743,-1.444461 -5.499757,-2.929742 -5.621333,-2.929742 -0.121569,0 -1.293706,0.936235 -2.284426,1.60849 -7.115762,4.828423 -19.863902,10.951064 -32.157171,14.682754 l -3.3434477,1.014922 0.3273425,1.978462 c 0.2262112,1.936851 1.3195952,8.138644 2.3941172,12.3104453 5.356321,20.7957607 16.97726,37.1199387 32.731857,45.8629687 1.193633,0.662409 2.781834,1.300458 3.094407,1.305171 0.31257,0.0047 2.084461,-0.742879 3.717176,-1.700811 z" fill="url(#i)" stroke="url(#j)" stroke-width=".5" transform="translate(0 48)"/>
    <g stroke-width=".471" stroke-linecap="round" stroke-linejoin="round">
        <path d="m -73.881889,-4.6293179 c -0.507742,-0.177402 -1.08613,-0.046397 -1.470652,0.378901 L -91.734788,13.86571 -97.664774,6.2884221 c -0.567064,-0.512696 -1.435963,-0.478237 -1.948662,0.088827 l -4.294114,3.430523 c -0.51269,0.5670599 -0.46769,1.4382239 0.0994,1.9509179 0,0 10.728838,14.246903 10.743382,14.259026 0.132903,0.120165 0.282743,0.200489 0.440367,0.259942 0.514909,0.194217 1.118022,0.07485 1.510555,-0.359307 L -69.020292,1.4865271 c 0.512694,-0.56706195 0.467698,-1.43822395 -0.09937,-1.95091993 l -4.28196,-3.88539107 c -0.141768,-0.128175 -0.311022,-0.220401 -0.480269,-0.279534 z" fill="url(#k)" stroke="#070b00" stroke-opacity=".996" transform="matrix(1.48254 -.35465 .35495 1.48133 175.512 2.185)"/>
        <path d="m -74.978545,-3.2016699 -8.310802,9.222897 -7.383516,8.1220699 c -0.206245,0.128638 -0.28299,0.673517 -1.051361,0.685046 -0.531614,0.008 -0.577618,-0.200117 -1.024273,-0.665865 l -5.23947,-6.6531665 c -0.580564,-0.75009 -0.565862,-0.7148191 -1.197772,-0.3235054 l -3.378551,2.652702 c -0.87807,0.5807619 -0.87802,1.0586829 -0.14038,1.8252769 0,0 9.759296,12.933261 9.773051,12.944731 0.125708,0.113655 0.05752,0.125975 0.5759,0.706188 0.332525,0.372187 0.895003,-0.422683 1.263883,-0.830659 L -69.849981,1.0476071 c 0.481801,-0.53286893 0.454382,-0.53069193 -0.08199,-1.01561495 l -3.848961,-3.39320705 c -0.55318,-0.497556 -0.55744,-0.494409 -1.197613,0.159545 z" fill="none" stroke="url(#l)" transform="matrix(1.48254 -.35465 .35495 1.48133 175.512 2.185)"/>
    </g>
</svg>
