<svg xmlns="http://www.w3.org/2000/svg" xmlns:xlink="http://www.w3.org/1999/xlink" width="96" height="96">
    <defs>
        <linearGradient xlink:href="#b" id="j" x1="24.001" y1="60.65" x2="24.001" y2=".971" gradientUnits="userSpaceOnUse" gradientTransform="matrix(2.00212 0 0 1.9507 -.099 -46.48)"/>
        <linearGradient id="c">
            <stop offset="0"/>
            <stop offset="1" stop-opacity="0"/>
        </linearGradient>
        <linearGradient id="f">
            <stop offset="0" stop-color="#f0f1ee"/>
            <stop offset="1" stop-color="#d5d9d1"/>
        </linearGradient>
        <linearGradient id="d">
            <stop offset="0" stop-color="#fff"/>
            <stop offset="1" stop-color="#fff" stop-opacity="0"/>
        </linearGradient>
        <linearGradient id="b">
            <stop offset="0"/>
            <stop offset="1" stop-opacity="0"/>
        </linearGradient>
        <linearGradient id="a">
            <stop offset="0" stop-color="#c22f2f"/>
            <stop offset="1" stop-color="#a40000"/>
        </linearGradient>
        <linearGradient gradientUnits="userSpaceOnUse" y2="43" x2="23.1" y1="6" x1="23.173" id="n" xlink:href="#a"/>
        <linearGradient id="g">
            <stop offset="0" stop-color="#edeeec"/>
            <stop offset="1" stop-color="#babdb6"/>
        </linearGradient>
        <linearGradient xlink:href="#c" id="k" x1="24.001" y1="60.65" x2="24.001" y2=".971" gradientUnits="userSpaceOnUse" gradientTransform="matrix(2.00212 0 0 1.9507 -.099 -46.48)"/>
        <linearGradient id="e">
            <stop offset="0" stop-color="#e78181"/>
            <stop offset=".25" stop-color="#e15f5f"/>
            <stop offset=".68" stop-color="#c22f2f"/>
            <stop offset="1" stop-color="#a40000"/>
        </linearGradient>
        <linearGradient y2="36.297" x2="12.718" y1="17.042" x1="31.972" gradientTransform="rotate(-45 14.499 44.102) scale(1.48418)" gradientUnits="userSpaceOnUse" id="o" xlink:href="#d"/>
        <radialGradient gradientUnits="userSpaceOnUse" gradientTransform="matrix(0 2.54791 -4.88416 0 144.164 -10.748)" r="18.5" fy="24.5" fx="6.573" cy="24.5" cx="6.573" id="m" xlink:href="#e"/>
        <radialGradient r="10.319" fy="35.127" fx="23.071" cy="35.127" cx="23.071" gradientTransform="matrix(.91481 .01265 -.00822 .21356 2.254 27.189)" gradientUnits="userSpaceOnUse" id="l" xlink:href="#c"/>
        <radialGradient xlink:href="#f" id="h" gradientUnits="userSpaceOnUse" gradientTransform="matrix(3.25687 0 0 3.33189 -31.458 -57.38)" cx="22.75" cy="10.25" fx="22.75" fy="10.25" r="19.875"/>
        <radialGradient xlink:href="#g" id="i" gradientUnits="userSpaceOnUse" gradientTransform="matrix(8.2059 0 0 5.60726 -97.63 -129.806)" cx="17.62" cy="21.611" fx="17.62" fy="21.611" r="8"/>
    </defs>
    <path style="marker:none" d="M43.14-35.908C28.227-25.03 4.86-18.352 4.86-18.352c6.044 50.23 39.035 62.422 39.035 62.422S76.382 31.39 82.93-19.084c0 0-28.206-9.997-39.79-16.824z" display="block" overflow="visible" fill="url(#h)" stroke="#888a85" stroke-linecap="round" stroke-linejoin="round" transform="translate(4.057 44.255)"/>
    <path style="marker:none" d="M47.246 9.754C33.273 19.948 10.268 26.789 10.268 26.789c5.664 47.072 37.694 60.16 37.694 60.16S79.5 73.366 85.636 26.066c0 0-27.534-9.914-38.39-16.312z" display="block" overflow="visible" fill="none" stroke="#fff" stroke-linecap="round" stroke-linejoin="round"/>
    <path d="M46.96-34.499l.221 69.649s-26.694-14.211-34.11-54.67c22.436-5.452 33.89-14.979 33.89-14.979z" style="marker:none" display="block" overflow="visible" fill="url(#i)" transform="translate(0 48)"/>
    <path d="M45.11 39.49C30.333 31.741 18.344 16.25 12.355-3.114c-2.148-6.944-3.997-16.737-3.884-19.172.197-.224 3.094-1.1 4.616-1.59 12.323-3.952 24.426-9.667 31.783-14.706 1.204-.825 2.152-1.61 2.342-1.61.19 0 1.486.843 2.844 1.587 6.009 3.288 17.048 7.9 31.858 13.411 2.748 1.023 5.475 1.902 5.52 2.186.09.559-.105 1.82-1.208 7.748C82.139 6.698 71.18 24.973 56.065 36.077c-2.16 1.586-7.546 4.727-8.106 4.72-.166-.002-1.32-.504-2.85-1.307zm6.61-1.496c9.732-5.71 19.039-16.173 24.885-27.62 3.074-6.018 6.115-14.215 7.757-21.321.693-3 2.251-11.425 2.132-11.53-.03-.026-3.96-1.413-8.285-3.057-10.779-4.097-18.927-7.49-25.348-10.605-2.977-1.444-5.5-2.93-5.62-2.93-.122 0-1.295.937-2.285 1.61-7.116 4.828-19.864 10.95-32.158 14.682l-3.343 1.015.327 1.978c.227 1.937 1.32 8.139 2.394 12.31 5.357 20.796 16.978 37.12 32.732 45.864 1.194.662 2.782 1.3 3.095 1.305.312.005 2.084-.743 3.717-1.701z" fill="url(#j)" stroke="url(#k)" stroke-width=".5" transform="translate(0 48)"/>
    <g transform="matrix(1.08696 0 0 1.05844 20.513 20.25)">
        <ellipse ry="2.32" rx="10.319" cy="34.941" cx="22.959" transform="matrix(2.22882 0 0 1.91905 -27.171 -25.505)" opacity=".256" fill="url(#l)"/>
        <path d="M42.5 35L32 24l10.5-10L35 6.5 24.5 17 14 6.5 6.5 14 17 24 6.5 35l7.5 7.5L24.5 32 34 42.5l8.5-7.5z" style="line-height:125%;text-align:start" font-weight="700" font-size="59.901" font-family="Bitstream Vera Sans" fill="url(#m)" stroke="url(#n)" stroke-width=".507" stroke-linejoin="round"/>
        <path d="M41 35L30.5 24 41 14l-6-6-10.5 10.5L14 8l-6 6 10.5 10L8 35l6 6 10.5-10.5L34 41l7-6z" style="line-height:125%;text-align:start" font-weight="700" font-size="59.901" font-family="Bitstream Vera Sans" opacity=".4" fill="none" stroke="url(#o)" stroke-width=".507" stroke-linejoin="round"/>
    </g>
</svg>
