<svg xmlns="http://www.w3.org/2000/svg" xmlns:xlink="http://www.w3.org/1999/xlink" width="96" height="96">
    <defs>
        <linearGradient xlink:href="#a" id="r" gradientUnits="userSpaceOnUse" gradientTransform="rotate(-15 9.72 -32.246) scale(.9412)" x1="21.788" y1="21.877" x2="10.211" y2="3.423"/>
        <linearGradient y2="3.423" x2="10.211" y1="21.877" x1="21.788" gradientTransform="rotate(-15 9.72 -32.246) scale(.9412)" gradientUnits="userSpaceOnUse" id="x" xlink:href="#a"/>
        <linearGradient id="h">
            <stop offset="0" stop-color="#edeeec"/>
            <stop offset="1" stop-color="#babdb6"/>
        </linearGradient>
        <linearGradient id="g">
            <stop offset="0" stop-color="#f0f1ee"/>
            <stop offset="1" stop-color="#d5d9d1"/>
        </linearGradient>
        <linearGradient id="c">
            <stop offset="0" stop-color="#eeeeec" stop-opacity=".471"/>
            <stop offset="1" stop-color="#eeeeec" stop-opacity="0"/>
        </linearGradient>
        <linearGradient id="f">
            <stop offset="0" stop-color="#fff"/>
            <stop offset="1" stop-color="#fff" stop-opacity="0"/>
        </linearGradient>
        <linearGradient xlink:href="#b" id="o" gradientUnits="userSpaceOnUse" gradientTransform="rotate(-15 6.51 -27.277)" x1="22.965" y1="35.311" x2="12.641" y2="11.424"/>
        <linearGradient y2="31.111" x2="23.032" y1="36.68" x1="17.66" gradientUnits="userSpaceOnUse" id="F" xlink:href="#c"/>
        <linearGradient xlink:href="#d" id="k" x1="24.001" y1="60.65" x2="24.001" y2=".971" gradientUnits="userSpaceOnUse" gradientTransform="matrix(2.00212 0 0 1.9507 -.099 -46.48)"/>
        <linearGradient xlink:href="#e" id="l" x1="24.001" y1="60.65" x2="24.001" y2=".971" gradientUnits="userSpaceOnUse" gradientTransform="matrix(2.00212 0 0 1.9507 -.099 -46.48)"/>
        <linearGradient id="d">
            <stop offset="0"/>
            <stop offset="1" stop-opacity="0"/>
        </linearGradient>
        <linearGradient y2="30.901" x2="17.449" y1="36.825" x1="20.807" gradientUnits="userSpaceOnUse" id="E" xlink:href="#c"/>
        <linearGradient y2="11.424" x2="12.641" y1="35.311" x1="22.965" gradientTransform="rotate(-15 6.51 -27.277)" gradientUnits="userSpaceOnUse" id="u" xlink:href="#b"/>
        <linearGradient id="b">
            <stop offset="0" stop-color="#888a85"/>
            <stop offset="1" stop-color="#d3d7cf"/>
        </linearGradient>
        <linearGradient y2="52.505" x2="17.028" y1="7.871" x1="17.413" gradientTransform="rotate(-15 6.51 -27.277)" gradientUnits="userSpaceOnUse" id="p" xlink:href="#f"/>
        <linearGradient y2="37.128" x2="22.053" y1="30.676" x1="16.794" gradientTransform="translate(-3 1)" gradientUnits="userSpaceOnUse" id="D" xlink:href="#b"/>
        <linearGradient id="e">
            <stop offset="0"/>
            <stop offset="1" stop-opacity="0"/>
        </linearGradient>
        <linearGradient id="a">
            <stop offset="0" stop-color="#d3d7cf"/>
            <stop offset="1" stop-color="#888a85"/>
        </linearGradient>
        <linearGradient y2="30.758" x2="32.567" y1="13.971" x1="16.488" gradientTransform="rotate(-15 23.5 19)" gradientUnits="userSpaceOnUse" id="s" xlink:href="#f"/>
        <linearGradient y2="5.188" x2="17.732" y1="22.795" x1="28.357" gradientTransform="rotate(-15 23.5 19)" gradientUnits="userSpaceOnUse" id="t" xlink:href="#f"/>
        <linearGradient y2="52.505" x2="17.028" y1="7.871" x1="17.413" gradientTransform="rotate(-15 6.51 -27.277)" gradientUnits="userSpaceOnUse" id="v" xlink:href="#f"/>
        <linearGradient y2="44.063" x2="30.438" y1="31.063" x1="14.375" gradientUnits="userSpaceOnUse" id="B" xlink:href="#f"/>
        <linearGradient y2="30.758" x2="32.567" y1="13.971" x1="16.488" gradientTransform="rotate(-15 23.5 19)" gradientUnits="userSpaceOnUse" id="y" xlink:href="#f"/>
        <linearGradient y2="5.188" x2="17.732" y1="22.795" x1="28.357" gradientTransform="rotate(-15 23.5 19)" gradientUnits="userSpaceOnUse" id="z" xlink:href="#f"/>
        <linearGradient y2="42.564" x2="26.737" y1="29.88" x1="14.496" gradientTransform="translate(-3 1)" gradientUnits="userSpaceOnUse" id="A" xlink:href="#a"/>
        <radialGradient r="11.125" fy="12" fx="31" cy="12" cx="31" gradientTransform="rotate(-15 30.64 13.48) scale(1.01195)" gradientUnits="userSpaceOnUse" id="w" xlink:href="#e"/>
        <radialGradient r="8.688" fy="34.5" fx="42.5" cy="34.5" cx="42.5" gradientTransform="matrix(1 0 0 .9964 -26 1.124)" gradientUnits="userSpaceOnUse" id="C" xlink:href="#e"/>
        <radialGradient r="11.125" fy="12" fx="31" cy="12" cx="31" gradientTransform="rotate(-15 30.64 13.48) scale(1.01195)" gradientUnits="userSpaceOnUse" id="q" xlink:href="#e"/>
        <radialGradient r="9.5" fy="34.656" fx="15.313" cy="34.656" cx="15.313" gradientTransform="matrix(1 0 0 1.00329 0 -.114)" gradientUnits="userSpaceOnUse" id="n" xlink:href="#e"/>
        <radialGradient xlink:href="#g" id="i" gradientUnits="userSpaceOnUse" gradientTransform="matrix(3.25687 0 0 3.33189 -31.458 -57.38)" cx="22.75" cy="10.25" fx="22.75" fy="10.25" r="19.875"/>
        <radialGradient xlink:href="#h" id="j" gradientUnits="userSpaceOnUse" gradientTransform="matrix(8.2059 0 0 5.60726 -97.63 -129.806)" cx="17.62" cy="21.611" fx="17.62" fy="21.611" r="8"/>
        <radialGradient gradientUnits="userSpaceOnUse" gradientTransform="matrix(1 0 0 1.00329 0 -.114)" r="9.5" fy="34.656" fx="15.313" cy="34.656" cx="15.313" id="m" xlink:href="#e"/>
    </defs>
    <path style="marker:none" d="M43.14-35.908C28.227-25.03 4.86-18.352 4.86-18.352c6.044 50.23 39.035 62.422 39.035 62.422S76.382 31.39 82.93-19.084c0 0-28.206-9.997-39.79-16.824z" display="block" overflow="visible" fill="url(#i)" stroke="#888a85" stroke-linecap="round" stroke-linejoin="round" transform="translate(4.057 44.255)"/>
    <path style="marker:none" d="M47.246 9.754C33.273 19.948 10.268 26.789 10.268 26.789c5.664 47.072 37.694 60.16 37.694 60.16S79.5 73.366 85.636 26.066c0 0-27.534-9.914-38.39-16.312z" display="block" overflow="visible" fill="none" stroke="#fff" stroke-linecap="round" stroke-linejoin="round"/>
    <path d="M46.96-34.499l.221 69.649s-26.694-14.211-34.11-54.67c22.436-5.452 33.89-14.979 33.89-14.979z" style="marker:none" display="block" overflow="visible" fill="url(#j)" transform="translate(0 48)"/>
    <path d="M45.11 39.49C30.333 31.741 18.344 16.25 12.355-3.114c-2.148-6.944-3.997-16.737-3.884-19.172.197-.224 3.094-1.1 4.616-1.59 12.323-3.952 24.426-9.667 31.783-14.706 1.204-.825 2.152-1.61 2.342-1.61.19 0 1.486.843 2.844 1.587 6.009 3.288 17.048 7.9 31.858 13.411 2.748 1.023 5.475 1.902 5.52 2.186.09.559-.105 1.82-1.208 7.748C82.139 6.698 71.18 24.973 56.065 36.077c-2.16 1.586-7.546 4.727-8.106 4.72-.166-.002-1.32-.504-2.85-1.307zm6.61-1.496c9.732-5.71 19.039-16.173 24.885-27.62 3.074-6.018 6.115-14.215 7.757-21.321.693-3 2.251-11.425 2.132-11.53-.03-.026-3.96-1.413-8.285-3.057-10.779-4.097-18.927-7.49-25.348-10.605-2.977-1.444-5.5-2.93-5.62-2.93-.122 0-1.295.937-2.285 1.61-7.116 4.828-19.864 10.95-32.158 14.682l-3.343 1.015.327 1.978c.227 1.937 1.32 8.139 2.394 12.31 5.357 20.796 16.978 37.12 32.732 45.864 1.194.662 2.782 1.3 3.095 1.305.312.005 2.084-.743 3.717-1.701z" fill="url(#k)" stroke="url(#l)" stroke-width=".5" transform="translate(0 48)"/>
    <g transform="matrix(1.1445 0 0 1.14946 21.161 19.116)">
        <ellipse ry="9.531" rx="9.5" cy="34.656" cx="15.313" transform="matrix(1.38816 0 0 .49836 -4.756 25.479)" opacity=".49" fill="url(#m)"/>
        <ellipse ry="9.531" rx="9.5" cy="34.656" cx="15.313" transform="matrix(1.47368 0 0 .65574 10.434 15.525)" opacity=".247" fill="url(#n)"/>
        <g transform="rotate(15 -28.766 27.596)">
            <path d="M31 .5c-.562 0-1.116.047-1.656.125l-.219 3.094c-.96.215-1.85.583-2.656 1.094L24.125 2.78C23 3.5 22.5 4 21.781 5.125l2.032 2.344a8.384 8.384 0 00-1.094 2.656l-3.094.219c-.078.54-.125 1.094-.125 1.656 0 .562.047 1.116.125 1.656l3.094.219c.215.96.583 1.85 1.093 2.656l-2.03 2.344C22.5 20 23 20.5 24.124 21.219l2.344-2.032a8.36 8.36 0 002.656 1.094l.219 3.094c.54.078 1.094.125 1.656.125.562 0 1.116-.047 1.656-.125l.219-3.094a8.384 8.384 0 002.656-1.093l2.344 2.03C39 20.5 39.5 20 40.219 18.876l-2.032-2.344a8.384 8.384 0 001.094-2.656l3.094-.219c.078-.54.125-1.094.125-1.656 0-.562-.047-1.116-.125-1.656l-3.094-.219a8.384 8.384 0 00-1.093-2.656l2.03-2.344C39.57 4.017 39 3.5 37.876 2.781l-2.344 2.031a8.384 8.384 0 00-2.656-1.093l-.22-3.094A11.597 11.597 0 0031 .5zm0 9a2.5 2.5 0 010 5 2.5 2.5 0 010-5z" fill="url(#o)" stroke="#2e3436" stroke-width=".502" stroke-linecap="square"/>
            <path d="M31 1.438c-.26 0-.522.041-.781.062L30 4.563a7.459 7.459 0 00-3.531 1.468l-2.313-1.968c-.39.337-.756.702-1.093 1.093L25.03 7.47A7.459 7.459 0 0023.563 11l-3.063.219c-.02.259-.062.52-.062.781 0 .26.041.522.062.781l3.063.219a7.459 7.459 0 001.468 3.531l-1.968 2.313c.337.39.702.756 1.093 1.094l2.313-1.97A7.459 7.459 0 0030 19.439l.219 3.062c.259.02.52.063.781.063.26 0 .522-.042.781-.063L32 19.438a7.459 7.459 0 003.531-1.47l2.313 1.97c.39-.338.756-.703 1.094-1.094l-1.97-2.313A7.459 7.459 0 0038.439 13l3.062-.219c.02-.259.063-.52.063-.781 0-.26-.042-.522-.063-.781L38.438 11a7.459 7.459 0 00-1.47-3.531l1.97-2.313a10.573 10.573 0 00-1.094-1.093L35.53 6.03A7.459 7.459 0 0032 4.563L31.781 1.5c-.259-.02-.52-.062-.781-.062z" fill="none" stroke="url(#p)" stroke-width=".565" stroke-linecap="square"/>
            <path d="M31 .875c-.321 0-.584.044-.813.063l-.5.03-.03.5-.188 2.657c-1.06.21-2.042.64-2.907 1.219l-2.406-2.032-1.843 1.844 2.03 2.407a8.034 8.034 0 00-1.218 2.906l-2.656.187-.5.031-.032.5c-.018.229-.062.492-.062.813 0 .321.044.584.063.813l.03.5.5.03 2.657.188c.21 1.06.64 2.042 1.219 2.906l-1.719 2.032-.313.375.313.375c.356.412.744.8 1.156 1.156l.375.313.375-.313 2.032-1.719a8.034 8.034 0 002.906 1.219l.187 2.656.032.5.5.032c.228.018.491.062.812.062.321 0 .584-.044.813-.063l.5-.03.03-.5.188-2.657a8.034 8.034 0 002.907-1.219l2.03 1.719.376.313.375-.313c.412-.356.8-.744 1.156-1.156l.313-.375-.313-.375-1.719-2.032a8.034 8.034 0 001.219-2.906l2.656-.187.5-.031.032-.5c.018-.229.062-.492.062-.813 0-.321-.044-.584-.063-.813l-.03-.5-.5-.03-2.657-.188a8.034 8.034 0 00-1.219-2.906l1.719-2.032.313-.375-.313-.375c-.356-.412-.744-.8-1.156-1.156l-.375-.313-.375.313-2.032 1.719a8.034 8.034 0 00-2.906-1.219l-.187-2.656-.032-.5-.5-.031c-.228-.02-.49-.063-.812-.063zM31 8.5c1.932 0 3.5 1.568 3.5 3.5s-1.568 3.5-3.5 3.5a3.501 3.501 0 01-3.5-3.5c0-1.932 1.568-3.5 3.5-3.5z" opacity=".8" fill="url(#q)"/>
            <path d="M31 4c-4.416 0-8 3.584-8 8s3.584 8 8 8 8-3.584 8-8-3.584-8-8-8zm0 5a3.001 3.001 0 010 6 3.001 3.001 0 010-6z" fill="url(#r)"/>
            <circle r="8.5" cy="19" cx="23.5" transform="translate(10.265 -4.765) scale(.88235)" fill="none" stroke="url(#s)" stroke-width=".565" stroke-linecap="square"/>
            <circle r="8.5" cy="19" cx="23.5" transform="translate(21.324 4.176) scale(.41176)" fill="none" stroke="url(#t)" stroke-width="1.212" stroke-linecap="square"/>
        </g>
        <g transform="rotate(15 21.702 -29.277)">
            <path d="M31 .5c-.562 0-1.116.047-1.656.125l-.219 3.094c-.96.215-1.85.583-2.656 1.094L24.125 2.78C23 3.5 22.5 4 21.781 5.125l2.032 2.344a8.384 8.384 0 00-1.094 2.656l-3.094.219c-.078.54-.125 1.094-.125 1.656 0 .562.047 1.116.125 1.656l3.094.219c.215.96.583 1.85 1.093 2.656l-2.03 2.344C22.5 20 23 20.5 24.124 21.219l2.344-2.032a8.36 8.36 0 002.656 1.094l.219 3.094c.54.078 1.094.125 1.656.125.562 0 1.116-.047 1.656-.125l.219-3.094a8.384 8.384 0 002.656-1.093l2.344 2.03C39 20.5 39.5 20 40.219 18.876l-2.032-2.344a8.384 8.384 0 001.094-2.656l3.094-.219c.078-.54.125-1.094.125-1.656 0-.562-.047-1.116-.125-1.656l-3.094-.219a8.384 8.384 0 00-1.093-2.656l2.03-2.344C39.57 4.017 39 3.5 37.876 2.781l-2.344 2.031a8.384 8.384 0 00-2.656-1.093l-.22-3.094A11.597 11.597 0 0031 .5zm0 9a2.5 2.5 0 010 5 2.5 2.5 0 010-5z" fill="url(#u)" stroke="#2e3436" stroke-width=".502" stroke-linecap="square"/>
            <path d="M31 1.438c-.26 0-.522.041-.781.062L30 4.563a7.459 7.459 0 00-3.531 1.468l-2.313-1.968c-.39.337-.756.702-1.093 1.093L25.03 7.47A7.459 7.459 0 0023.563 11l-3.063.219c-.02.259-.062.52-.062.781 0 .26.041.522.062.781l3.063.219a7.459 7.459 0 001.468 3.531l-1.968 2.313c.337.39.702.756 1.093 1.094l2.313-1.97A7.459 7.459 0 0030 19.439l.219 3.062c.259.02.52.063.781.063.26 0 .522-.042.781-.063L32 19.438a7.459 7.459 0 003.531-1.47l2.313 1.97c.39-.338.756-.703 1.094-1.094l-1.97-2.313A7.459 7.459 0 0038.439 13l3.062-.219c.02-.259.063-.52.063-.781 0-.26-.042-.522-.063-.781L38.438 11a7.459 7.459 0 00-1.47-3.531l1.97-2.313a10.573 10.573 0 00-1.094-1.093L35.53 6.03A7.459 7.459 0 0032 4.563L31.781 1.5c-.259-.02-.52-.062-.781-.062z" fill="none" stroke="url(#v)" stroke-width=".565" stroke-linecap="square"/>
            <path d="M31 .875c-.321 0-.584.044-.813.063l-.5.03-.03.5-.188 2.657c-1.06.21-2.042.64-2.907 1.219l-2.406-2.032-1.843 1.844 2.03 2.407a8.034 8.034 0 00-1.218 2.906l-2.656.187-.5.031-.032.5c-.018.229-.062.492-.062.813 0 .321.044.584.063.813l.03.5.5.03 2.657.188c.21 1.06.64 2.042 1.219 2.906l-1.719 2.032-.313.375.313.375c.356.412.744.8 1.156 1.156l.375.313.375-.313 2.032-1.719a8.034 8.034 0 002.906 1.219l.187 2.656.032.5.5.032c.228.018.491.062.812.062.321 0 .584-.044.813-.063l.5-.03.03-.5.188-2.657a8.034 8.034 0 002.907-1.219l2.03 1.719.376.313.375-.313c.412-.356.8-.744 1.156-1.156l.313-.375-.313-.375-1.719-2.032a8.034 8.034 0 001.219-2.906l2.656-.187.5-.031.032-.5c.018-.229.062-.492.062-.813 0-.321-.044-.584-.063-.813l-.03-.5-.5-.03-2.657-.188a8.034 8.034 0 00-1.219-2.906l1.719-2.032.313-.375-.313-.375c-.356-.412-.744-.8-1.156-1.156l-.375-.313-.375.313-2.032 1.719a8.034 8.034 0 00-2.906-1.219l-.187-2.656-.032-.5-.5-.031c-.228-.02-.49-.063-.812-.063zM31 8.5c1.932 0 3.5 1.568 3.5 3.5s-1.568 3.5-3.5 3.5a3.501 3.501 0 01-3.5-3.5c0-1.932 1.568-3.5 3.5-3.5z" opacity=".8" fill="url(#w)"/>
            <path d="M31 4c-4.416 0-8 3.584-8 8s3.584 8 8 8 8-3.584 8-8-3.584-8-8-8zm0 5a3.001 3.001 0 010 6 3.001 3.001 0 010-6z" fill="url(#x)"/>
            <circle r="8.5" cy="19" cx="23.5" transform="translate(10.265 -4.765) scale(.88235)" fill="none" stroke="url(#y)" stroke-width=".565" stroke-linecap="square"/>
            <circle r="8.5" cy="19" cx="23.5" transform="translate(21.324 4.176) scale(.41176)" fill="none" stroke="url(#z)" stroke-width="1.212" stroke-linecap="square"/>
        </g>
        <path d="M16.156 26.5a9.08 9.08 0 00-1.437.188h-.031a9.056 9.056 0 00-2.407.875l.656 3.125a6.043 6.043 0 00-1.28 1.25l-3.095-.625c-.256.484-.49.968-.656 1.5a9.126 9.126 0 00-.406 2.343l3.063 1.032c.07.592.201 1.18.437 1.718l-2.125 2.375c.278.442.59.865.938 1.25l.624.594c.389.355.804.685 1.25.969l2.376-2.125c.285.127.563.229.874.312.295.08.612.154.907.188l1 3.031a9.08 9.08 0 001.437-.188h.032a9.056 9.056 0 002.406-.874l-.657-3.126a6.043 6.043 0 001.282-1.25l3.093.626c.257-.485.491-.969.657-1.5.23-.739.375-1.538.406-2.344l-3.063-1.032c-.07-.592-.201-1.18-.437-1.718l2.125-2.375a9.095 9.095 0 00-.938-1.25l-.625-.594a9.063 9.063 0 00-1.25-.969l-2.375 2.125a5.764 5.764 0 00-.875-.312 6.403 6.403 0 00-.906-.188l-1-3.031zm.125 7c.114-.013.228-.007.344 0 .133.008.273.027.406.063 1.067.285 1.692 1.402 1.407 2.468-.286 1.067-1.403 1.692-2.47 1.407-1.066-.286-1.691-1.403-1.405-2.47A2.011 2.011 0 0116.28 33.5z" fill="url(#A)" stroke="#2e3436" stroke-width=".499" stroke-linecap="round"/>
        <path transform="translate(-3 1)" d="M18.46 26.486l-2.075.557.845 4.041a.969.969 0 01-1.146 1.146l-4.072-.845-.559 2.076 3.945 1.307a.969.969 0 01.418 1.564l-2.738 3.07 1.494 1.512 3.096-2.762a.969.969 0 011.564.418l1.307 3.946 2.076-.559-.845-4.041a.969.969 0 011.146-1.146l4.072.845.559-2.076-3.945-1.307a.969.969 0 01-.418-1.564l2.738-3.07-1.494-1.512-3.096 2.762a.969.969 0 01-1.564-.418l-1.307-3.944z" fill="none" stroke="url(#B)" stroke-width=".499" stroke-linecap="round"/>
        <path d="M15.781 26.844l-3 .875.938 4.468a.449.449 0 01-.125.407.449.449 0 01-.406.125l-4.5-.938-.876 3 4.438 1.469c.15.051.242.191.281.344a.417.417 0 01-.094.406l-3.03 3.438 2.124 2.156L15 39.53a.417.417 0 01.406-.093c.153.04.293.132.344.28l1.469 4.438 3-.875-.938-4.468a.449.449 0 01.125-.407.449.449 0 01.407-.125l4.5.938.875-3-4.438-1.469c-.15-.051-.242-.191-.281-.344a.417.417 0 01.093-.406l3.032-3.438-2.125-2.156L18 31.47a.417.417 0 01-.406.093c-.153-.04-.293-.132-.344-.28l-1.469-4.438zM16.5 32.5a3.001 3.001 0 010 6 3.001 3.001 0 010-6z" opacity=".937" fill="url(#C)"/>
        <path d="M16.5 30a5.502 5.502 0 00-5.5 5.5c0 3.036 2.464 5.5 5.5 5.5s5.5-2.464 5.5-5.5-2.464-5.5-5.5-5.5zm0 3a2.5 2.5 0 010 5 2.5 2.5 0 010-5z" fill="url(#D)"/>
        <circle r="3.16" cy="34.587" cx="19.556" transform="translate(-2.066 2.663) scale(.9494)" fill="none" stroke="url(#E)" stroke-width=".526" stroke-linecap="round"/>
        <circle r="3.16" cy="34.587" cx="19.556" transform="matrix(1.58233 0 0 -1.58234 -14.444 90.228)" fill="none" stroke="url(#F)" stroke-width=".315" stroke-linecap="round"/>
    </g>
</svg>
